<svg xmlns="http://www.w3.org/2000/svg" width="20.1" height="19.1" fill="none">
    <path fill="#ea580c" d="m0 6 3-6 3 5 4-2 4 2 3-5 3 6-1 8-9 5-9-5z" opacity=".9"/>
    <path fill="#c2410c" d="m.1 6 3-6 3 5z"/>
    <path fill="#c2410c" d="m20.1 6-3-6-3 5z"/>
    <path fill="rgba(234,88,12,0.4)" d="m1.6 5.5 2-4 2 3.5z"/>
    <path fill="rgba(234,88,12,0.4)" d="m18.6 5.5-2-4-2 3.5z"/>
    <ellipse cx="10.1" cy="14" fill="#fde8d8" rx="5" ry="3.5"/>
    <circle cx="10.1" cy="12" r="1.2" fill="#7c2d12"/>
    <rect width="2.5" height="2" x="5.6" y="8" fill="#0d0d0d" rx=".5"/>
    <rect width="2.5" height="2" x="12.1" y="8" fill="#0d0d0d" rx=".5"/>
    <rect width=".8" height=".8" x="6.6" y="8.3" fill="rgba(255,255,255,0.6)" rx=".2"/>
    <rect width=".8" height=".8" x="13.1" y="8.3" fill="rgba(255,255,255,0.6)" rx=".2"/>
    <path fill="none" stroke="rgba(124,45,18,0.5)" stroke-width=".8" d="m4.1 12-3-1 3-.5"/>
    <path fill="none" stroke="rgba(124,45,18,0.5)" stroke-width=".8" d="m16.1 12 3-1-3-.5"/>
    <path fill="none" stroke="#c2410c" stroke-width=".8" d="M8.6 14.5q1.5 1 3 0"/>
</svg>